<mxfile host="app.diagrams.net" agent="Mozilla/5.0 (Macintosh; Intel Mac OS X 10_15_7) AppleWebKit/537.36 (KHTML, like Gecko) Chrome/128.0.0.0 Safari/537.36" version="24.7.16">
  <diagram name="Page-1" id="xxagjKHvuykKeISPaDIU">
    <mxGraphModel dx="1434" dy="785" grid="1" gridSize="10" guides="1" tooltips="1" connect="1" arrows="1" fold="1" page="1" pageScale="1" pageWidth="850" pageHeight="1100" math="0" shadow="0">
      <root>
        <mxCell id="0" />
        <mxCell id="1" parent="0" />
        <mxCell id="kuitL360T-SQnWMxBUtK-38" value="" style="edgeStyle=orthogonalEdgeStyle;rounded=0;orthogonalLoop=1;jettySize=auto;html=1;" edge="1" parent="1" source="kuitL360T-SQnWMxBUtK-2" target="kuitL360T-SQnWMxBUtK-4">
          <mxGeometry relative="1" as="geometry" />
        </mxCell>
        <mxCell id="kuitL360T-SQnWMxBUtK-2" value="Start" style="ellipse;whiteSpace=wrap;html=1;" vertex="1" parent="1">
          <mxGeometry x="40" y="90" width="80" height="40" as="geometry" />
        </mxCell>
        <mxCell id="kuitL360T-SQnWMxBUtK-16" value="" style="edgeStyle=orthogonalEdgeStyle;rounded=0;orthogonalLoop=1;jettySize=auto;html=1;" edge="1" parent="1" source="kuitL360T-SQnWMxBUtK-4" target="kuitL360T-SQnWMxBUtK-14">
          <mxGeometry relative="1" as="geometry" />
        </mxCell>
        <mxCell id="kuitL360T-SQnWMxBUtK-4" value="Display Menu" style="rounded=0;whiteSpace=wrap;html=1;" vertex="1" parent="1">
          <mxGeometry x="20" y="200" width="120" height="60" as="geometry" />
        </mxCell>
        <mxCell id="kuitL360T-SQnWMxBUtK-8" value="" style="edgeStyle=orthogonalEdgeStyle;rounded=0;orthogonalLoop=1;jettySize=auto;html=1;" edge="1" parent="1" source="kuitL360T-SQnWMxBUtK-5" target="kuitL360T-SQnWMxBUtK-7">
          <mxGeometry relative="1" as="geometry" />
        </mxCell>
        <mxCell id="kuitL360T-SQnWMxBUtK-5" value="Case 1" style="rhombus;whiteSpace=wrap;html=1;" vertex="1" parent="1">
          <mxGeometry x="300" y="190" width="80" height="80" as="geometry" />
        </mxCell>
        <mxCell id="kuitL360T-SQnWMxBUtK-19" value="" style="edgeStyle=orthogonalEdgeStyle;rounded=0;orthogonalLoop=1;jettySize=auto;html=1;" edge="1" parent="1" source="kuitL360T-SQnWMxBUtK-7" target="kuitL360T-SQnWMxBUtK-13">
          <mxGeometry relative="1" as="geometry" />
        </mxCell>
        <mxCell id="kuitL360T-SQnWMxBUtK-7" value="Ask for input amount&lt;div&gt;Ask for sender&lt;/div&gt;&lt;div&gt;Ask for description&lt;/div&gt;" style="rounded=0;whiteSpace=wrap;html=1;" vertex="1" parent="1">
          <mxGeometry x="410" y="200" width="120" height="60" as="geometry" />
        </mxCell>
        <mxCell id="kuitL360T-SQnWMxBUtK-13" value="Confirm&amp;nbsp;" style="shape=parallelogram;perimeter=parallelogramPerimeter;whiteSpace=wrap;html=1;fixedSize=1;" vertex="1" parent="1">
          <mxGeometry x="560" y="200" width="120" height="60" as="geometry" />
        </mxCell>
        <mxCell id="kuitL360T-SQnWMxBUtK-18" value="" style="edgeStyle=orthogonalEdgeStyle;rounded=0;orthogonalLoop=1;jettySize=auto;html=1;" edge="1" parent="1" source="kuitL360T-SQnWMxBUtK-14" target="kuitL360T-SQnWMxBUtK-5">
          <mxGeometry relative="1" as="geometry" />
        </mxCell>
        <mxCell id="kuitL360T-SQnWMxBUtK-14" value="User Input" style="shape=parallelogram;perimeter=parallelogramPerimeter;whiteSpace=wrap;html=1;fixedSize=1;" vertex="1" parent="1">
          <mxGeometry x="180" y="200" width="90" height="60" as="geometry" />
        </mxCell>
        <mxCell id="kuitL360T-SQnWMxBUtK-20" value="YES" style="text;html=1;align=center;verticalAlign=middle;whiteSpace=wrap;rounded=0;" vertex="1" parent="1">
          <mxGeometry x="360" y="200" width="60" height="30" as="geometry" />
        </mxCell>
        <mxCell id="kuitL360T-SQnWMxBUtK-29" value="" style="edgeStyle=orthogonalEdgeStyle;rounded=0;orthogonalLoop=1;jettySize=auto;html=1;" edge="1" parent="1" source="kuitL360T-SQnWMxBUtK-30" target="kuitL360T-SQnWMxBUtK-32">
          <mxGeometry relative="1" as="geometry" />
        </mxCell>
        <mxCell id="kuitL360T-SQnWMxBUtK-30" value="Case 2" style="rhombus;whiteSpace=wrap;html=1;" vertex="1" parent="1">
          <mxGeometry x="300" y="320" width="80" height="80" as="geometry" />
        </mxCell>
        <mxCell id="kuitL360T-SQnWMxBUtK-31" value="" style="edgeStyle=orthogonalEdgeStyle;rounded=0;orthogonalLoop=1;jettySize=auto;html=1;" edge="1" parent="1" source="kuitL360T-SQnWMxBUtK-32" target="kuitL360T-SQnWMxBUtK-33">
          <mxGeometry relative="1" as="geometry" />
        </mxCell>
        <mxCell id="kuitL360T-SQnWMxBUtK-32" value="Ask for input amount&lt;div&gt;Ask for receiver&lt;/div&gt;&lt;div&gt;Ask for description&lt;/div&gt;" style="rounded=0;whiteSpace=wrap;html=1;" vertex="1" parent="1">
          <mxGeometry x="410" y="330" width="120" height="60" as="geometry" />
        </mxCell>
        <mxCell id="kuitL360T-SQnWMxBUtK-39" style="edgeStyle=orthogonalEdgeStyle;rounded=0;orthogonalLoop=1;jettySize=auto;html=1;exitX=1;exitY=0.5;exitDx=0;exitDy=0;" edge="1" parent="1" source="kuitL360T-SQnWMxBUtK-33" target="kuitL360T-SQnWMxBUtK-4">
          <mxGeometry relative="1" as="geometry">
            <mxPoint x="130" y="200" as="targetPoint" />
            <mxPoint x="690" y="360" as="sourcePoint" />
            <Array as="points">
              <mxPoint x="781" y="360" />
              <mxPoint x="781" y="150" />
              <mxPoint x="80" y="150" />
            </Array>
          </mxGeometry>
        </mxCell>
        <mxCell id="kuitL360T-SQnWMxBUtK-33" value="Confirm&amp;nbsp;" style="shape=parallelogram;perimeter=parallelogramPerimeter;whiteSpace=wrap;html=1;fixedSize=1;" vertex="1" parent="1">
          <mxGeometry x="560" y="330" width="120" height="60" as="geometry" />
        </mxCell>
        <mxCell id="kuitL360T-SQnWMxBUtK-34" value="YES" style="text;html=1;align=center;verticalAlign=middle;whiteSpace=wrap;rounded=0;" vertex="1" parent="1">
          <mxGeometry x="360" y="330" width="60" height="30" as="geometry" />
        </mxCell>
        <mxCell id="kuitL360T-SQnWMxBUtK-35" value="" style="endArrow=classic;html=1;rounded=0;exitX=0.5;exitY=1;exitDx=0;exitDy=0;entryX=0.5;entryY=0;entryDx=0;entryDy=0;" edge="1" parent="1" source="kuitL360T-SQnWMxBUtK-5" target="kuitL360T-SQnWMxBUtK-30">
          <mxGeometry width="50" height="50" relative="1" as="geometry">
            <mxPoint x="310" y="460" as="sourcePoint" />
            <mxPoint x="360" y="410" as="targetPoint" />
          </mxGeometry>
        </mxCell>
        <mxCell id="kuitL360T-SQnWMxBUtK-36" value="NO" style="text;html=1;align=center;verticalAlign=middle;whiteSpace=wrap;rounded=0;" vertex="1" parent="1">
          <mxGeometry x="320" y="280" width="60" height="30" as="geometry" />
        </mxCell>
        <mxCell id="kuitL360T-SQnWMxBUtK-37" value="" style="endArrow=classic;html=1;rounded=0;entryX=0.5;entryY=0;entryDx=0;entryDy=0;" edge="1" parent="1">
          <mxGeometry width="50" height="50" relative="1" as="geometry">
            <mxPoint x="620" y="200" as="sourcePoint" />
            <mxPoint x="80" y="200" as="targetPoint" />
            <Array as="points">
              <mxPoint x="620" y="150" />
              <mxPoint x="430" y="150" />
              <mxPoint x="80" y="150" />
            </Array>
          </mxGeometry>
        </mxCell>
        <mxCell id="kuitL360T-SQnWMxBUtK-40" value="" style="edgeStyle=orthogonalEdgeStyle;rounded=0;orthogonalLoop=1;jettySize=auto;html=1;" edge="1" parent="1" source="kuitL360T-SQnWMxBUtK-41">
          <mxGeometry relative="1" as="geometry">
            <mxPoint x="410" y="480" as="targetPoint" />
          </mxGeometry>
        </mxCell>
        <mxCell id="kuitL360T-SQnWMxBUtK-50" value="" style="edgeStyle=orthogonalEdgeStyle;rounded=0;orthogonalLoop=1;jettySize=auto;html=1;" edge="1" parent="1" source="kuitL360T-SQnWMxBUtK-41" target="kuitL360T-SQnWMxBUtK-49">
          <mxGeometry relative="1" as="geometry" />
        </mxCell>
        <mxCell id="kuitL360T-SQnWMxBUtK-41" value="Case 3" style="rhombus;whiteSpace=wrap;html=1;" vertex="1" parent="1">
          <mxGeometry x="300" y="440" width="80" height="80" as="geometry" />
        </mxCell>
        <mxCell id="kuitL360T-SQnWMxBUtK-48" style="edgeStyle=orthogonalEdgeStyle;rounded=0;orthogonalLoop=1;jettySize=auto;html=1;exitX=1;exitY=0.5;exitDx=0;exitDy=0;entryX=0.5;entryY=0;entryDx=0;entryDy=0;" edge="1" parent="1" source="kuitL360T-SQnWMxBUtK-44" target="kuitL360T-SQnWMxBUtK-4">
          <mxGeometry relative="1" as="geometry">
            <mxPoint x="780" y="150" as="targetPoint" />
            <Array as="points">
              <mxPoint x="780" y="480" />
              <mxPoint x="780" y="150" />
              <mxPoint x="80" y="150" />
            </Array>
          </mxGeometry>
        </mxCell>
        <mxCell id="kuitL360T-SQnWMxBUtK-44" value="Display balance" style="shape=parallelogram;perimeter=parallelogramPerimeter;whiteSpace=wrap;html=1;fixedSize=1;" vertex="1" parent="1">
          <mxGeometry x="400" y="450" width="120" height="60" as="geometry" />
        </mxCell>
        <mxCell id="kuitL360T-SQnWMxBUtK-45" value="YES" style="text;html=1;align=center;verticalAlign=middle;whiteSpace=wrap;rounded=0;" vertex="1" parent="1">
          <mxGeometry x="360" y="450" width="60" height="30" as="geometry" />
        </mxCell>
        <mxCell id="kuitL360T-SQnWMxBUtK-46" value="" style="endArrow=classic;html=1;rounded=0;exitX=0.5;exitY=1;exitDx=0;exitDy=0;" edge="1" parent="1" source="kuitL360T-SQnWMxBUtK-30" target="kuitL360T-SQnWMxBUtK-41">
          <mxGeometry width="50" height="50" relative="1" as="geometry">
            <mxPoint x="220" y="560" as="sourcePoint" />
            <mxPoint x="270" y="510" as="targetPoint" />
          </mxGeometry>
        </mxCell>
        <mxCell id="kuitL360T-SQnWMxBUtK-47" value="NO" style="text;html=1;align=center;verticalAlign=middle;whiteSpace=wrap;rounded=0;" vertex="1" parent="1">
          <mxGeometry x="320" y="400" width="60" height="30" as="geometry" />
        </mxCell>
        <mxCell id="kuitL360T-SQnWMxBUtK-53" value="" style="edgeStyle=orthogonalEdgeStyle;rounded=0;orthogonalLoop=1;jettySize=auto;html=1;" edge="1" parent="1" source="kuitL360T-SQnWMxBUtK-49" target="kuitL360T-SQnWMxBUtK-52">
          <mxGeometry relative="1" as="geometry" />
        </mxCell>
        <mxCell id="kuitL360T-SQnWMxBUtK-56" style="edgeStyle=orthogonalEdgeStyle;rounded=0;orthogonalLoop=1;jettySize=auto;html=1;exitX=0;exitY=0.5;exitDx=0;exitDy=0;entryX=0.5;entryY=1;entryDx=0;entryDy=0;" edge="1" parent="1" source="kuitL360T-SQnWMxBUtK-49" target="kuitL360T-SQnWMxBUtK-4">
          <mxGeometry relative="1" as="geometry" />
        </mxCell>
        <mxCell id="kuitL360T-SQnWMxBUtK-49" value="Case 4" style="rhombus;whiteSpace=wrap;html=1;" vertex="1" parent="1">
          <mxGeometry x="300" y="550" width="80" height="80" as="geometry" />
        </mxCell>
        <mxCell id="kuitL360T-SQnWMxBUtK-51" value="NO" style="text;html=1;align=center;verticalAlign=middle;whiteSpace=wrap;rounded=0;" vertex="1" parent="1">
          <mxGeometry x="330" y="520" width="60" height="30" as="geometry" />
        </mxCell>
        <mxCell id="kuitL360T-SQnWMxBUtK-52" value="End" style="ellipse;whiteSpace=wrap;html=1;" vertex="1" parent="1">
          <mxGeometry x="430" y="570" width="80" height="40" as="geometry" />
        </mxCell>
        <mxCell id="kuitL360T-SQnWMxBUtK-54" value="YES" style="text;html=1;align=center;verticalAlign=middle;whiteSpace=wrap;rounded=0;" vertex="1" parent="1">
          <mxGeometry x="370" y="550" width="60" height="30" as="geometry" />
        </mxCell>
        <mxCell id="kuitL360T-SQnWMxBUtK-57" value="NO" style="text;html=1;align=center;verticalAlign=middle;whiteSpace=wrap;rounded=0;" vertex="1" parent="1">
          <mxGeometry x="240" y="560" width="60" height="30" as="geometry" />
        </mxCell>
      </root>
    </mxGraphModel>
  </diagram>
</mxfile>
